<svg width="165" height="67" viewBox="0 0 165 67" fill="none" xmlns="http://www.w3.org/2000/svg">
<g filter="url(#filter0_d)">
<path d="M80.2888 7.0601C64.0485 16.2482 27.8201 -3.27649 15.3276 7.0601C2.83501 17.3967 0.336504 41.5153 15.3276 51.8519C30.3186 62.1885 62.7992 57.5944 80.2888 51.8519C97.7784 46.1093 134.007 61.04 147.749 51.8519C161.49 42.6638 166.487 13.9511 147.749 7.0601C129.01 0.169123 96.5291 -2.12796 80.2888 7.0601Z" stroke="black"/>
<path d="M49.1249 31.7793C49.1249 32.4889 48.9621 33.1237 48.6366 33.6836C48.3111 34.237 47.8911 34.7057 47.3768 35.0898C46.8625 35.4674 46.2896 35.7572 45.6581 35.959C45.0331 36.1608 44.4146 36.2617 43.8026 36.2617C42.6568 36.2617 41.5988 36.0534 40.6288 35.6367C39.6587 35.2201 38.7961 34.6081 38.0409 33.8008V34.0352C38.0409 34.2435 38.0441 34.4486 38.0506 34.6504C38.0571 34.8522 38.0669 35.054 38.0799 35.2559V35.2949C38.0799 35.4251 38.0344 35.5391 37.9432 35.6367C37.8586 35.7344 37.7446 35.7897 37.6014 35.8027C37.4517 35.8027 37.328 35.7572 37.2303 35.666C37.1327 35.5749 37.0773 35.4577 37.0643 35.3145C37.0513 35.1061 37.0415 34.8978 37.035 34.6895C37.0285 34.4746 37.0252 34.263 37.0252 34.0547C37.0252 33.3906 37.0578 32.7786 37.1229 32.2188C37.188 31.6523 37.2759 31.0924 37.3866 30.5391C37.4191 30.4154 37.4777 30.3145 37.5624 30.2363C37.6535 30.1582 37.7609 30.1191 37.8846 30.1191C38.0344 30.1191 38.1581 30.1777 38.2557 30.2949C38.3534 30.4056 38.4022 30.5195 38.4022 30.6367C38.4022 30.6497 38.4022 30.666 38.4022 30.6855C38.4022 30.6986 38.3957 30.7148 38.3827 30.7344C38.3501 30.8841 38.3208 31.0241 38.2948 31.1543C38.2752 31.278 38.2525 31.4017 38.2264 31.5254C38.2069 31.6426 38.1874 31.7663 38.1678 31.8965C38.1548 32.0202 38.1385 32.1602 38.119 32.3164C38.8482 33.2539 39.6815 33.9766 40.619 34.4844C41.5565 34.9857 42.6112 35.2363 43.7831 35.2363C44.1151 35.2363 44.4699 35.207 44.8475 35.1484C45.2316 35.0898 45.5832 34.9857 45.9022 34.8359C46.2277 34.6797 46.4946 34.4746 46.703 34.2207C46.9178 33.9603 47.0252 33.6315 47.0252 33.2344C47.0252 32.9544 46.9504 32.7005 46.8006 32.4727C46.6509 32.2383 46.4556 32.0299 46.2147 31.8477C45.9738 31.6654 45.7004 31.5059 45.3944 31.3691C45.0949 31.2259 44.7922 31.1022 44.4862 30.998C44.1802 30.8939 43.8872 30.8092 43.6073 30.7441C43.3338 30.6725 43.0995 30.6172 42.9042 30.5781C42.4419 30.4805 41.9829 30.373 41.5272 30.2559C41.0715 30.1322 40.6385 29.9857 40.2284 29.8164C39.8182 29.6471 39.4374 29.4486 39.0858 29.2207C38.7342 28.9928 38.4282 28.7259 38.1678 28.4199C37.9139 28.1074 37.7121 27.7461 37.5624 27.3359C37.4191 26.9258 37.3475 26.4538 37.3475 25.9199C37.3475 25.3991 37.4159 24.9206 37.5526 24.4844C37.6958 24.0417 37.8911 23.6445 38.1385 23.293C38.3859 22.9414 38.6756 22.6354 39.0077 22.375C39.3462 22.1081 39.714 21.8867 40.1112 21.7109C40.5083 21.5286 40.925 21.3952 41.3612 21.3105C41.8039 21.2194 42.2499 21.1738 42.6991 21.1738C42.9725 21.1738 43.2622 21.1966 43.5682 21.2422C43.8807 21.2812 44.19 21.3398 44.4959 21.418C44.8019 21.4896 45.1014 21.5775 45.3944 21.6816C45.6939 21.7793 45.9706 21.89 46.2245 22.0137C46.4784 22.1309 46.703 22.2578 46.8983 22.3945C47.0936 22.5247 47.2499 22.6582 47.367 22.7949C47.4582 22.5475 47.5558 22.3034 47.66 22.0625C47.7707 21.8151 47.8846 21.5677 48.0018 21.3203C48.0539 21.2292 48.119 21.1608 48.1971 21.1152C48.2818 21.0632 48.3696 21.0371 48.4608 21.0371C48.6105 21.0371 48.7342 21.0924 48.8319 21.2031C48.9295 21.3073 48.9784 21.4245 48.9784 21.5547C48.9784 21.6263 48.9588 21.7012 48.9198 21.7793C48.5812 22.4824 48.3013 23.1888 48.0799 23.8984C47.8651 24.6016 47.7121 25.3145 47.6209 26.0371C47.6079 26.1673 47.5526 26.2747 47.4549 26.3594C47.3638 26.4375 47.2531 26.4766 47.1229 26.4766C46.9732 26.4766 46.8495 26.4212 46.7518 26.3105C46.6542 26.1999 46.6053 26.0892 46.6053 25.9785V25.9199C46.6834 25.2298 46.8234 24.5495 47.0252 23.8789C46.9862 23.7617 46.8853 23.638 46.7225 23.5078C46.5598 23.3711 46.3579 23.2409 46.117 23.1172C45.8827 22.9935 45.6157 22.8763 45.3163 22.7656C45.0168 22.6484 44.7108 22.5475 44.3983 22.4629C44.0858 22.3783 43.7733 22.3099 43.4608 22.2578C43.1483 22.2057 42.8618 22.1797 42.6014 22.1797C42.2043 22.1797 41.8234 22.222 41.4588 22.3066C41.0943 22.3913 40.7687 22.528 40.4823 22.7168C40.2023 22.9056 39.9745 23.1497 39.7987 23.4492C39.6229 23.7422 39.5318 24.097 39.5252 24.5137C39.5513 24.8783 39.6489 25.194 39.8182 25.4609C39.994 25.7214 40.2088 25.9492 40.4627 26.1445C40.7232 26.3398 41.0161 26.5059 41.3417 26.6426C41.6672 26.7728 41.9959 26.8867 42.328 26.9844C42.6665 27.0755 42.9953 27.1569 43.3143 27.2285C43.6333 27.2936 43.923 27.3555 44.1834 27.4141C44.841 27.5703 45.4693 27.7461 46.0682 27.9414C46.6672 28.1367 47.1913 28.3939 47.6405 28.7129C48.0962 29.0319 48.4575 29.4388 48.7245 29.9336C48.9914 30.4219 49.1249 31.0371 49.1249 31.7793ZM58.6659 26.0762C58.6659 26.2064 58.6203 26.3236 58.5292 26.4277C58.4445 26.5254 58.3371 26.5807 58.2069 26.5938C57.7837 26.6263 57.3638 26.6556 56.9471 26.6816C56.5305 26.7077 56.1105 26.7272 55.6874 26.7402V33.5762C55.6874 33.7064 55.7134 33.8268 55.7655 33.9375C55.8241 34.0482 55.8957 34.1426 55.9803 34.2207C56.0715 34.2988 56.1724 34.3607 56.2831 34.4062C56.3937 34.4518 56.5077 34.4746 56.6249 34.4746C56.8006 34.4746 56.9439 34.429 57.0545 34.3379C57.1717 34.2402 57.2694 34.123 57.3475 33.9863C57.4256 33.8431 57.4875 33.6934 57.5331 33.5371C57.5851 33.3809 57.6275 33.2409 57.66 33.1172C57.6795 33 57.7381 32.9056 57.8358 32.834C57.9334 32.7559 58.0409 32.7168 58.1581 32.7168C58.3078 32.7168 58.4282 32.7754 58.5194 32.8926C58.617 33.0033 58.6659 33.1172 58.6659 33.2344V33.3418C58.4771 34.2077 58.106 34.8783 57.5526 35.3535C56.9992 35.8223 56.3156 36.0566 55.5018 36.0566C55.1307 36.0566 54.7499 36.0078 54.3592 35.9102C53.9686 35.8125 53.6138 35.6302 53.2948 35.3633C52.9823 35.0964 52.7251 34.7285 52.5233 34.2598C52.3215 33.7845 52.2206 33.1693 52.2206 32.4141V26.7207C51.9276 26.7012 51.6314 26.6816 51.3319 26.6621C51.0389 26.6426 50.7427 26.6198 50.4432 26.5938C50.313 26.5742 50.2023 26.5156 50.1112 26.418C50.0265 26.3203 49.9842 26.2064 49.9842 26.0762C49.9842 25.9264 50.0396 25.806 50.1502 25.7148C50.2674 25.6237 50.3846 25.5781 50.5018 25.5781H50.5409C50.8273 25.5977 51.1073 25.6172 51.3807 25.6367C51.6607 25.6562 51.9406 25.6758 52.2206 25.6953V22.375C52.2206 22.2643 52.2564 22.1634 52.328 22.0723C52.3996 21.9746 52.4907 21.9095 52.6014 21.877L55.0428 21.2227C55.0624 21.2096 55.0851 21.2031 55.1112 21.2031C55.1372 21.1966 55.16 21.1934 55.1795 21.1934C55.3293 21.1934 55.4497 21.2487 55.5409 21.3594C55.6385 21.4701 55.6874 21.5905 55.6874 21.7207V25.7148C56.0845 25.7018 56.4849 25.6855 56.8885 25.666C57.2987 25.64 57.7088 25.6107 58.119 25.5781H58.1581C58.3013 25.5781 58.4217 25.6302 58.5194 25.7344C58.617 25.832 58.6659 25.946 58.6659 26.0762ZM66.5858 32.1602C66.5728 32.0495 66.563 31.9355 66.5565 31.8184C66.55 31.7012 66.5467 31.5807 66.5467 31.457H66.1854C65.925 31.457 65.6157 31.4766 65.2577 31.5156C64.9061 31.5547 64.5415 31.6165 64.1639 31.7012C63.7863 31.7858 63.412 31.8997 63.0409 32.043C62.6698 32.1797 62.3377 32.349 62.0448 32.5508C61.7518 32.7461 61.5142 32.9772 61.3319 33.2441C61.1561 33.5111 61.0682 33.8171 61.0682 34.1621C61.0682 34.3444 61.1105 34.5007 61.1952 34.6309C61.2863 34.7611 61.397 34.8685 61.5272 34.9531C61.6639 35.0312 61.8137 35.0898 61.9764 35.1289C62.1392 35.1615 62.2954 35.1777 62.4452 35.1777C62.9074 35.1777 63.3436 35.0898 63.7538 34.9141C64.1704 34.7318 64.5545 34.4974 64.9061 34.2109C65.2577 33.918 65.5734 33.5924 65.8534 33.2344C66.1333 32.8763 66.3775 32.5182 66.5858 32.1602ZM71.2635 35.5391H71.2245C71.1138 35.526 70.9999 35.5195 70.8827 35.5195C70.7655 35.5195 70.6515 35.5195 70.5409 35.5195C69.9289 35.5195 69.3397 35.5586 68.7733 35.6367C68.2134 35.7148 67.6502 35.8353 67.0838 35.998C67.0643 35.998 67.0448 36.0013 67.0252 36.0078C67.0057 36.0143 66.9797 36.0176 66.9471 36.0176C66.7974 36.0176 66.6737 35.959 66.576 35.8418C66.4849 35.7311 66.4393 35.6172 66.4393 35.5V35.4219C66.4393 35.4089 66.4556 35.2786 66.4881 35.0312C66.5207 34.7773 66.5532 34.4258 66.5858 33.9766C66.3058 34.2891 66.0064 34.582 65.6874 34.8555C65.3749 35.1224 65.0428 35.3568 64.6913 35.5586C64.3462 35.7539 63.9881 35.9069 63.617 36.0176C63.2459 36.1348 62.8618 36.1934 62.4647 36.1934C62.1522 36.1934 61.8495 36.1445 61.5565 36.0469C61.2635 35.9557 61.0031 35.8223 60.7752 35.6465C60.5539 35.4707 60.3749 35.2591 60.2381 35.0117C60.1079 34.7578 60.0428 34.4746 60.0428 34.1621C60.0428 33.6738 60.147 33.2441 60.3553 32.873C60.5702 32.502 60.8501 32.1797 61.1952 31.9062C61.5402 31.6263 61.9308 31.3952 62.367 31.2129C62.8098 31.0241 63.259 30.8743 63.7147 30.7637C64.1704 30.6465 64.6131 30.5651 65.0428 30.5195C65.4725 30.4674 65.8534 30.4414 66.1854 30.4414H66.4198C66.4198 30.0443 66.3482 29.6569 66.2049 29.2793C66.0682 28.9017 65.8729 28.5664 65.619 28.2734C65.3716 27.9805 65.0754 27.7461 64.7303 27.5703C64.3853 27.388 64.0044 27.2969 63.5877 27.2969C63.2818 27.2969 62.9823 27.3848 62.6893 27.5605C62.3963 27.7298 62.1359 27.9479 61.9081 28.2148C61.6802 28.4818 61.4946 28.7812 61.3514 29.1133C61.2147 29.4453 61.1463 29.7676 61.1463 30.0801C61.1463 30.2103 61.091 30.321 60.9803 30.4121C60.8762 30.4967 60.759 30.5391 60.6288 30.5391C60.4855 30.5391 60.3618 30.487 60.2577 30.3828C60.1535 30.2721 60.1014 30.1517 60.1014 30.0215C60.1014 29.709 60.1568 29.3835 60.2674 29.0449C60.3781 28.6999 60.5376 28.3646 60.7459 28.0391C60.9608 27.707 61.218 27.3945 61.5174 27.1016C61.8234 26.8086 62.1685 26.5514 62.5526 26.3301C62.9432 26.1022 63.3696 25.9232 63.8319 25.793C64.2941 25.6628 64.7857 25.5977 65.3065 25.5977C66.0357 25.5977 66.6574 25.7116 67.1717 25.9395C67.6926 26.1673 68.1255 26.4766 68.4706 26.8672C68.8221 27.2578 69.0988 27.7103 69.3006 28.2246C69.5025 28.7389 69.6555 29.2826 69.7596 29.8555C69.8638 30.4284 69.9289 31.0111 69.9549 31.6035C69.9875 32.196 70.0038 32.7624 70.0038 33.3027C70.0038 33.5762 70.0005 33.8105 69.994 34.0059C69.9875 34.2012 69.9842 34.3639 69.9842 34.4941C70.0819 34.4941 70.1795 34.4909 70.2772 34.4844C70.3814 34.4779 70.4823 34.4746 70.5799 34.4746C70.6906 34.4746 70.8045 34.4779 70.9217 34.4844C71.0454 34.4909 71.1659 34.4941 71.2831 34.4941C71.4263 34.5072 71.5402 34.5625 71.6249 34.6602C71.716 34.7578 71.7616 34.8783 71.7616 35.0215C71.7616 35.1582 71.7127 35.2786 71.6151 35.3828C71.5239 35.487 71.4068 35.5391 71.2635 35.5391ZM81.0682 30.7344C80.8273 30.7344 80.5995 30.6888 80.3846 30.5977C80.1763 30.5065 79.994 30.3828 79.8377 30.2266C79.6815 30.0703 79.5578 29.888 79.4667 29.6797C79.3755 29.4648 79.3299 29.237 79.3299 28.9961C79.3299 28.7552 79.3755 28.5306 79.4667 28.3223C79.5578 28.1074 79.6815 27.9219 79.8377 27.7656C79.994 27.6029 80.1763 27.4759 80.3846 27.3848C80.5995 27.2871 80.8273 27.2383 81.0682 27.2383C81.1008 27.2383 81.1301 27.2415 81.1561 27.248C81.1887 27.2546 81.2212 27.2578 81.2538 27.2578C81.0845 27.1276 80.8859 27.0299 80.6581 26.9648C80.4367 26.8932 80.1795 26.8574 79.8866 26.8574C79.5155 26.8574 79.1932 26.9355 78.9198 27.0918C78.6463 27.2415 78.412 27.4336 78.2167 27.668C78.0278 27.8958 77.8749 28.1465 77.7577 28.4199C77.6405 28.6868 77.5461 28.9408 77.4745 29.1816C77.4094 29.416 77.3638 29.6178 77.3377 29.7871C77.3182 29.9564 77.3084 30.054 77.3084 30.0801L77.2889 34.416C77.5168 34.4355 77.7446 34.4648 77.9725 34.5039C78.2069 34.543 78.4445 34.582 78.6854 34.6211C78.8091 34.6536 78.91 34.7188 78.9881 34.8164C79.0663 34.9076 79.1053 35.015 79.1053 35.1387C79.1053 35.2819 79.05 35.4023 78.9393 35.5C78.8286 35.5911 78.7114 35.6367 78.5877 35.6367H78.4901C77.9627 35.5391 77.4614 35.4642 76.9862 35.4121C76.5109 35.36 76.0389 35.334 75.5702 35.334C75.1014 35.334 74.6327 35.36 74.1639 35.4121C73.6952 35.4642 73.1971 35.5391 72.6698 35.6367H72.5721C72.4224 35.6367 72.3019 35.5879 72.2108 35.4902C72.1196 35.3861 72.0741 35.2689 72.0741 35.1387C72.0741 35.015 72.1099 34.9076 72.1815 34.8164C72.2531 34.7188 72.3508 34.6536 72.4745 34.6211C72.7023 34.582 72.9302 34.543 73.1581 34.5039C73.3859 34.4648 73.6105 34.4355 73.8319 34.416V27.1406C73.4217 27.1211 73.0767 27.0951 72.7967 27.0625C72.5168 27.0299 72.3605 27.0072 72.328 26.9941C72.1978 26.9811 72.0903 26.929 72.0057 26.8379C71.9276 26.7402 71.8885 26.6263 71.8885 26.4961C71.8885 26.3333 71.9439 26.2064 72.0545 26.1152C72.1717 26.0241 72.2889 25.9785 72.4061 25.9785H72.4745C72.481 25.985 72.5558 25.998 72.6991 26.0176C72.8423 26.0306 73.0278 26.0469 73.2557 26.0664C73.4836 26.0859 73.744 26.1022 74.037 26.1152C74.3364 26.1283 74.6392 26.1348 74.9452 26.1348C75.2577 26.1348 75.5637 26.125 75.8631 26.1055C76.1626 26.0859 76.4393 26.0501 76.6932 25.998C76.7062 25.985 76.7388 25.9785 76.7909 25.9785C76.9406 25.9785 77.0643 26.0339 77.162 26.1445C77.2596 26.2487 77.3084 26.3659 77.3084 26.4961V27.1992C77.5884 26.8086 77.94 26.4863 78.3631 26.2324C78.7928 25.972 79.3006 25.8418 79.8866 25.8418C80.3293 25.8548 80.7329 25.9329 81.0975 26.0762C81.4621 26.2129 81.7746 26.4049 82.035 26.6523C82.3019 26.8932 82.507 27.1862 82.6502 27.5312C82.8 27.8698 82.8749 28.2507 82.8749 28.6738C82.8749 28.9408 82.8325 29.1979 82.7479 29.4453C82.6633 29.6927 82.5428 29.9141 82.3866 30.1094C82.2303 30.2982 82.0383 30.4512 81.8104 30.5684C81.589 30.679 81.3417 30.7344 81.0682 30.7344ZM91.8885 26.0762C91.8885 26.2064 91.843 26.3236 91.7518 26.4277C91.6672 26.5254 91.5598 26.5807 91.4295 26.5938C91.0064 26.6263 90.5864 26.6556 90.1698 26.6816C89.7531 26.7077 89.3332 26.7272 88.91 26.7402V33.5762C88.91 33.7064 88.9361 33.8268 88.9881 33.9375C89.0467 34.0482 89.1183 34.1426 89.203 34.2207C89.2941 34.2988 89.395 34.3607 89.5057 34.4062C89.6164 34.4518 89.7303 34.4746 89.8475 34.4746C90.0233 34.4746 90.1665 34.429 90.2772 34.3379C90.3944 34.2402 90.492 34.123 90.5702 33.9863C90.6483 33.8431 90.7101 33.6934 90.7557 33.5371C90.8078 33.3809 90.8501 33.2409 90.8827 33.1172C90.9022 33 90.9608 32.9056 91.0584 32.834C91.1561 32.7559 91.2635 32.7168 91.3807 32.7168C91.5305 32.7168 91.6509 32.7754 91.742 32.8926C91.8397 33.0033 91.8885 33.1172 91.8885 33.2344V33.3418C91.6997 34.2077 91.3286 34.8783 90.7752 35.3535C90.2219 35.8223 89.5383 36.0566 88.7245 36.0566C88.3534 36.0566 87.9725 36.0078 87.5819 35.9102C87.1913 35.8125 86.8364 35.6302 86.5174 35.3633C86.2049 35.0964 85.9478 34.7285 85.7459 34.2598C85.5441 33.7845 85.4432 33.1693 85.4432 32.4141V26.7207C85.1502 26.7012 84.854 26.6816 84.5545 26.6621C84.2616 26.6426 83.9653 26.6198 83.6659 26.5938C83.5357 26.5742 83.425 26.5156 83.3338 26.418C83.2492 26.3203 83.2069 26.2064 83.2069 26.0762C83.2069 25.9264 83.2622 25.806 83.3729 25.7148C83.4901 25.6237 83.6073 25.5781 83.7245 25.5781H83.7635C84.05 25.5977 84.3299 25.6172 84.6034 25.6367C84.8833 25.6562 85.1633 25.6758 85.4432 25.6953V22.375C85.4432 22.2643 85.479 22.1634 85.5506 22.0723C85.6223 21.9746 85.7134 21.9095 85.8241 21.877L88.2655 21.2227C88.285 21.2096 88.3078 21.2031 88.3338 21.2031C88.3599 21.1966 88.3827 21.1934 88.4022 21.1934C88.5519 21.1934 88.6724 21.2487 88.7635 21.3594C88.8612 21.4701 88.91 21.5905 88.91 21.7207V25.7148C89.3071 25.7018 89.7075 25.6855 90.1112 25.666C90.5213 25.64 90.9315 25.6107 91.3417 25.5781H91.3807C91.5239 25.5781 91.6444 25.6302 91.742 25.7344C91.8397 25.832 91.8885 25.946 91.8885 26.0762ZM96.7225 34.5137C96.7225 34.722 96.6834 34.9173 96.6053 35.0996C96.5272 35.2819 96.4198 35.4414 96.2831 35.5781C96.1528 35.7148 95.9966 35.8223 95.8143 35.9004C95.632 35.9785 95.4367 36.0176 95.2284 36.0176C95.02 36.0176 94.8247 35.9785 94.6424 35.9004C94.4601 35.8223 94.3006 35.7148 94.1639 35.5781C94.0272 35.4414 93.9198 35.2819 93.8417 35.0996C93.7635 34.9173 93.7245 34.722 93.7245 34.5137C93.7245 34.3118 93.7635 34.1198 93.8417 33.9375C93.9198 33.7552 94.0272 33.599 94.1639 33.4688C94.3006 33.3385 94.4601 33.2344 94.6424 33.1562C94.8247 33.0781 95.02 33.0391 95.2284 33.0391C95.4367 33.0391 95.632 33.0781 95.8143 33.1562C95.9966 33.2344 96.1528 33.3385 96.2831 33.4688C96.4198 33.599 96.5272 33.7552 96.6053 33.9375C96.6834 34.1198 96.7225 34.3118 96.7225 34.5137ZM96.9471 23.0391C96.9471 23.4557 96.9211 23.931 96.869 24.4648C96.8234 24.9922 96.7583 25.5553 96.6737 26.1543C96.5956 26.7533 96.5044 27.3783 96.4002 28.0293C96.2961 28.6738 96.1919 29.3184 96.0877 29.9629C96.0292 30.3405 95.9706 30.7083 95.912 31.0664C95.8534 31.4245 95.798 31.776 95.7459 32.1211C95.7264 32.2513 95.6678 32.3587 95.5702 32.4434C95.4725 32.5215 95.3586 32.5605 95.2284 32.5605C95.1047 32.5605 94.994 32.5215 94.8963 32.4434C94.8052 32.3587 94.7499 32.2513 94.7303 32.1211C94.6782 31.7695 94.6196 31.4049 94.5545 31.0273C94.4894 30.6497 94.4276 30.2591 94.369 29.8555C94.2648 29.224 94.1607 28.5924 94.0565 27.9609C93.9588 27.3229 93.8709 26.7109 93.7928 26.125C93.7147 25.5326 93.6496 24.9759 93.5975 24.4551C93.5519 23.9277 93.5292 23.4557 93.5292 23.0391C93.5292 22.8047 93.5715 22.5866 93.6561 22.3848C93.7473 22.1764 93.8709 21.9941 94.0272 21.8379C94.1834 21.6816 94.3625 21.5612 94.5643 21.4766C94.7726 21.3854 94.994 21.3398 95.2284 21.3398C95.4627 21.3398 95.6841 21.3854 95.8924 21.4766C96.1008 21.5612 96.2831 21.6816 96.4393 21.8379C96.5956 21.9941 96.7193 22.1764 96.8104 22.3848C96.9015 22.5866 96.9471 22.8047 96.9471 23.0391Z" fill="black"/>
</g>
<defs>
<filter id="filter0_d" x="0.500031" y="0.5" width="164" height="66" filterUnits="userSpaceOnUse" color-interpolation-filters="sRGB">
<feFlood flood-opacity="0" result="BackgroundImageFix"/>
<feColorMatrix in="SourceAlpha" type="matrix" values="0 0 0 0 0 0 0 0 0 0 0 0 0 0 0 0 0 0 127 0"/>
<feOffset dy="4"/>
<feGaussianBlur stdDeviation="2"/>
<feColorMatrix type="matrix" values="0 0 0 0 0 0 0 0 0 0 0 0 0 0 0 0 0 0 0.25 0"/>
<feBlend mode="normal" in2="BackgroundImageFix" result="effect1_dropShadow"/>
<feBlend mode="normal" in="SourceGraphic" in2="effect1_dropShadow" result="shape"/>
</filter>
</defs>
</svg>
